<?xml version="1.0" encoding="utf-8"?>
<!-- Generator: Adobe Illustrator 23.0.2, SVG Export Plug-In . SVG Version: 6.00 Build 0)  -->
<svg version="1.1" id="Layer_1" xmlns="http://www.w3.org/2000/svg" xmlns:xlink="http://www.w3.org/1999/xlink" x="0px" y="0px"
	 viewBox="0 0 1000 400" style="enable-background:new 0 0 1000 400;" xml:space="preserve">
<style type="text/css">
	.st0{fill:#1434CB;}
	.st1{fill:#FF5F00;}
	.st2{fill:#EB001B;}
	.st3{fill:#F79E1B;}
</style>
<path id="path3789" class="st0" d="M788.5,110.7c-41.1,0-77.7,21.3-77.7,60.6c0,45.1,65,48.2,65,70.8c0,9.5-10.9,18.1-29.6,18.1
	c-26.5,0-46.3-11.9-46.3-11.9l-8.5,39.7c0,0,22.8,10.1,53.1,10.1c44.9,0,80.2-22.3,80.2-62.3c0-47.6-65.3-50.6-65.3-71.7
	c0-7.5,9-15.7,27.6-15.7c21,0,38.1,8.7,38.1,8.7l8.3-38.3C833.4,118.7,814.8,110.7,788.5,110.7L788.5,110.7z M413,113.6l-1,5.8
	c0,0,17.3,3.1,32.8,9.5c20.1,7.2,21.4,11.4,24.8,24.5L506.4,295h49.3l75.9-181.4h-49.1l-48.8,123.4l-19.9-104.5
	c-1.8-12-11.1-18.8-22.4-18.8C491.3,113.6,413,113.6,413,113.6z M651.3,113.6L612.8,295h46.8L698,113.6H651.3L651.3,113.6z
	 M912.7,113.6c-11.3,0-17.3,6-21.7,16.6L822.4,295h49.1l9.5-27.5h59.9l5.8,27.5H990l-37.8-181.4H912.7L912.7,113.6z M919.1,162.6
	l14.6,68.1h-39L919.1,162.6L919.1,162.6z"/>
<g>
	<rect x="153.3" y="108.8" class="st1" width="106.2" height="190.8"/>
	<path class="st2" d="M160,204.3c0-37.2,17.1-72.4,46.4-95.4C153.7,67.4,77.4,76.6,36,129.3C-5.5,182,3.7,258.2,56.4,299.7
		c44,34.6,106,34.6,150,0C177.1,276.7,160,241.5,160,204.3z"/>
	<path class="st3" d="M402.7,204.3c0,67-54.3,121.4-121.3,121.4c-27.2,0-53.6-9.1-75-25.9c52.7-41.4,61.8-117.7,20.4-170.4
		c-6-7.6-12.8-14.4-20.4-20.4c52.7-41.4,129-32.3,170.4,20.4C393.6,150.6,402.7,177.1,402.7,204.3z"/>
	<path class="st3" d="M391.1,279.5v-3.9h1.6v-0.8h-4v0.8h1.6v3.9H391.1z M398.9,279.5v-4.7h-1.2l-1.4,3.2l-1.4-3.2h-1.2v4.7h0.9
		v-3.6l1.3,3.1h0.9l1.3-3.1v3.6H398.9z"/>
</g>
</svg>
